<svg width="242" height="50" viewBox="0 0 242 50" fill="none" xmlns="http://www.w3.org/2000/svg">
<path d="M8.30366 12.5811H1.37683V37.4946H8.30366V12.5811Z" fill="white"/>
<path d="M34.8107 37.4967H27.834V23.026C27.834 20.1418 26.2394 18.5007 23.4985 18.5007C20.9072 18.5007 19.462 20.8379 19.163 21.3352V37.4967H12.2362V12.5832H18.8142V15.169C19.8607 13.8761 22.0534 12.0361 25.6414 12.0361C28.0832 11.9864 30.4254 12.8815 32.1197 14.5225C33.9137 16.263 34.8605 18.6499 34.8605 21.4844V37.4967H34.8107Z" fill="white"/>
<path d="M4.85887 9.64742C2.41704 9.64742 0.423706 7.65831 0.423706 5.22165C0.423706 2.73527 2.3672 0.795898 4.85887 0.795898C7.3007 0.795898 9.29403 2.785 9.29403 5.22165C9.29403 7.65831 7.3007 9.64742 4.85887 9.64742Z" fill="white"/>
<path d="M49.1637 37.9382C41.9877 37.9382 38.1505 33.6119 38.001 33.413L37.7518 33.1643L41.589 28.2413L41.9378 28.5894C41.9877 28.6391 45.0773 31.8714 48.8646 31.8714C50.7583 31.8714 53.0008 31.4239 53.0008 30.131C53.0008 28.9375 52.2533 28.6889 48.5657 27.8932C42.3365 26.5008 39.2967 23.915 39.2967 19.8871C39.2967 16.0581 43.084 11.9307 50.1105 11.9307C55.642 11.9307 59.2798 14.8646 59.4293 14.964L59.7283 15.2127L56.1901 20.3844L55.8413 20.1357C55.7915 20.1357 53.1503 18.1466 50.1105 18.1466C47.9178 18.1466 46.1737 18.9422 46.1737 19.9865C46.1737 21.0308 47.4693 21.3789 51.5556 22.2243C55.8911 23.1691 60.0771 24.5615 60.0771 30.131C60.0771 34.5567 55.343 37.9382 49.1637 37.9382Z" fill="white"/>
<path d="M75.8289 38.1427C70.8455 38.1427 67.2077 34.3634 67.2077 29.142V18.8484H62.4237V12.5827H67.2077V5.47168H74.1844V12.5827H81.4102V18.9479H74.1844V28.1972C74.1844 30.4349 75.0814 31.5787 76.8754 31.5787C78.0714 31.5787 79.1677 30.8328 79.2175 30.783L79.666 30.4847L82.2075 36.2033L81.9085 36.4022C81.8088 36.5017 79.4667 38.1427 75.8289 38.1427Z" fill="white"/>
<path d="M93.259 38.0465C90.867 38.0465 88.6245 37.2509 86.98 35.8088C85.1362 34.2175 84.1893 32.0792 84.1893 29.5431C84.1893 24.819 88.5248 21.1391 94.0563 21.1391C97.1958 21.1391 99.2888 21.9845 100.285 22.5315V21.9845C100.285 20.6916 99.2888 18.2549 95.5513 18.2549C92.1627 18.2549 88.5248 19.9954 88.5248 19.9954L88.1262 20.1943L85.8338 14.3762L86.1827 14.227C86.382 14.1275 90.8172 11.9893 95.9002 11.9893C102.927 11.9893 107.262 15.6194 107.262 21.4375V37.5492H100.784V35.212C99.5878 36.2563 97.146 38.0465 93.259 38.0465ZM95.1527 26.46C93.6577 26.46 91.1162 27.1064 91.1162 29.4436C91.1162 31.7808 93.6078 32.1289 95.053 32.1289C98.0928 32.1289 99.8868 30.0404 100.236 29.5431V27.4545C99.6376 27.2556 97.744 26.46 95.1527 26.46Z" fill="white"/>
<path d="M133.573 37.4967H126.647V23.026C126.647 20.1418 125.052 18.5007 122.311 18.5007C119.72 18.5007 118.275 20.8379 117.976 21.3352V37.4967H111.049V12.5832H117.627V15.169C118.673 13.8761 120.866 12.0361 124.454 12.0361C126.946 11.9864 129.238 12.8815 130.932 14.5225C132.726 16.263 133.623 18.6499 133.623 21.4844V37.4967H133.573Z" fill="white"/>
<path d="M149.719 38.1427C144.736 38.1427 141.098 34.3634 141.098 29.142V18.8484H136.314V12.5827H141.098V5.47168H148.025V12.5827H155.251V18.9479H148.025V28.1972C148.025 30.4349 148.922 31.5787 150.716 31.5787C151.912 31.5787 153.008 30.783 153.058 30.783L153.507 30.4847L156.048 36.2033L155.749 36.4022C155.699 36.5017 153.357 38.1427 149.719 38.1427Z" fill="white"/>
<path d="M166.069 49.1807H159.142V12.5812H165.621V14.9184C166.717 13.7746 168.91 12.0342 172.448 12.0342C179.275 12.0342 184.607 17.7529 184.607 25.1125C184.607 28.7427 183.312 32.0744 180.969 34.5111C178.677 36.898 175.687 38.1909 172.498 38.1909C169.259 38.1909 167.215 36.7488 166.169 35.7543V49.1807H166.069ZM166.069 28.494C166.368 28.9913 167.963 31.4777 171.352 31.4777C175.039 31.4777 177.481 28.8421 177.481 24.9634C177.481 21.0846 174.989 18.449 171.352 18.449C167.963 18.449 166.368 20.9354 166.069 21.4327V28.494Z" fill="white"/>
<path d="M196.212 38.0465C193.82 38.0465 191.578 37.2509 189.933 35.8088C188.089 34.2175 187.142 32.0792 187.142 29.5431C187.142 24.819 191.478 21.1391 197.009 21.1391C200.149 21.1391 202.242 21.9845 203.239 22.5315V21.9845C203.239 20.6916 202.242 18.2549 198.504 18.2549C195.116 18.2549 191.478 19.9954 191.478 19.9954L191.079 20.1943L188.787 14.3762L189.136 14.227C189.335 14.1275 193.77 11.9893 198.853 11.9893C205.88 11.9893 210.215 15.6194 210.215 21.4375V37.5492H203.737V35.212C202.541 36.2563 200.099 38.0465 196.212 38.0465ZM198.106 26.46C196.611 26.46 194.069 27.1064 194.069 29.4436C194.069 31.7808 196.561 32.1289 198.006 32.1289C201.046 32.1289 202.84 30.0404 203.189 29.5431V27.4545C202.591 27.2556 200.697 26.46 198.106 26.46Z" fill="white"/>
<path d="M219.992 49.6281C216.254 49.6281 213.364 47.0423 213.214 46.9428L212.965 46.6942L216.304 41.2739L216.703 41.6717C216.703 41.6717 218.198 43.1635 219.643 43.1635C221.536 43.1635 222.234 42.716 223.33 39.9312L224.227 37.6438L212.267 12.5811H219.992L227.766 29.4387L233.895 12.5811H241.42L229.46 42.5171C227.566 47.2412 224.377 49.6281 219.992 49.6281Z" fill="white"/>
</svg>
